<?xml version="1.0" encoding="UTF-8"?>
<svg width="392px" height="127px" viewBox="0 0 392 127" version="1.1" xmlns="http://www.w3.org/2000/svg" xmlns:xlink="http://www.w3.org/1999/xlink">
    <!-- Generator: Sketch 43.2 (39069) - http://www.bohemiancoding.com/sketch -->
    <title>Group</title>
    <desc>Created with Sketch.</desc>
    <defs>
        <path d="M27.2856329,20.2704315 C27.1887342,20.4113579 27.0775,20.5373414 26.9746835,20.6715102 C19.6656013,30.8182741 9.35496835,35.8066942 3.73164557,31.8060596 C-1.89063291,27.8092957 -0.712974684,16.3304569 6.29072785,5.96281726 C6.38272152,5.81903553 6.46348101,5.67198604 6.56231013,5.53055203 C10.5771519,-0.227728426 18.4727848,-1.59660533 24.1978481,2.47490482 C29.920981,6.54695431 31.3062975,14.5106282 27.2856329,20.2704315 Z" id="path-1"></path>
        <path d="M19.0306962,13.9129124 C18.9606646,14.0099302 18.8836709,14.0964784 18.8081962,14.188769 C13.6604747,21.1711929 6.43575949,24.6286485 2.52189873,21.9119607 C-1.39439873,19.1939086 -0.525601266,11.3215102 4.40924051,4.19048223 C4.47487342,4.09260787 4.52924051,3.99156091 4.60120253,3.89403553 C7.43094937,-0.0682423858 12.9568354,-1.03816624 16.9431329,1.73105964 C20.9245253,4.49749365 21.860443,9.95063452 19.0306962,13.9129124 Z" id="path-3"></path>
        <path d="M43.3361392,4.91875 C43.3361392,4.91875 44.6542089,34.2208122 28.3969937,22.9156091 C16.3583228,14.5441307 5.98746835,16.2089784 1.41237342,17.6353109 C-0.191341772,18.1359772 0.0995822785,16.989118 0.689832278,16.2281091 C20.0466139,-8.65161802 39.4747468,2.23657995 43.3361392,4.91875 Z" id="path-5"></path>
        <path d="M16.9747152,0.112722081 C20.7728481,2.80793147 37.4365506,17.2545368 20.6997152,43.4767132 C20.1886709,44.2768401 19.2138608,44.9276967 19.1449367,43.2716371 C18.9450316,38.5492386 17.0265506,28.3611358 5.18541139,19.9506345 C-10.8060443,8.58892766 16.9747152,0.112722081 16.9747152,0.112722081 Z" id="path-7"></path>
        <path d="M62.0339557,0.522017766 C63.545443,1.59482868 71.2265823,28.5218274 58.637943,44.1673223 C46.0502215,59.816085 33.4512342,74.0083439 31.054019,76.850349 C28.6551582,79.6927982 26.6611076,79.3110089 23.3647785,76.9704632 C21.8628797,75.9073921 17.6340823,72.9068845 13.4681329,69.952665 C9.3018038,66.9967957 5.07297468,63.9962881 3.57107595,62.933217 C0.275189873,60.5943211 -0.750443038,58.8296637 1.0968038,55.5986041 C2.94610759,52.3687183 11.9754114,35.6409581 22.3627848,18.4343591 C32.7522468,1.22893401 60.5175,-0.556440355 62.0273418,0.516782995 L62.0139557,0.544955584 L62.0339557,0.522017766 Z" id="path-9"></path>
        <path d="M2.05537975,4.82227157 C5.62044304,-0.259041878 12.6177215,-1.47369924 17.6832911,2.1061231 C22.7488608,5.68594543 23.9641139,12.7064086 20.3959494,17.7829949 C16.8321519,22.8621193 9.83186709,24.0794099 4.76629747,20.4995876 C-0.297531646,16.9193211 -1.51015823,9.9018401 2.05537975,4.82227157 Z" id="path-11"></path>
        <polygon id="path-13" points="0 83.6016 269 83.6016 269 -0.0004 0 -0.0004"></polygon>
    </defs>
    <g id="Page-1" stroke="none" stroke-width="1" fill="none" fill-rule="evenodd">
        <g id="Group" transform="translate(1.000000, 1.000000)">
            <g id="stellar-rocket@1x">
                <g id="Group-3" transform="translate(26.582278, 60.913706)">
                    <mask id="mask-2" fill="white">
                        <use xlink:href="#path-1"></use>
                    </mask>
                    <g id="Clip-2"></g>
                    <polygon id="Fill-1" fill="#ED8117" mask="url(#mask-2)" points="26.9698101 -4.66516497 35.6735759 27.9000952 1.66262658 37.0364213 -7.04110759 4.47116117"></polygon>
                </g>
                <g id="Group-6" transform="translate(33.544304, 63.134518)">
                    <mask id="mask-4" fill="white">
                        <use xlink:href="#path-3"></use>
                    </mask>
                    <g id="Clip-5"></g>
                    <polygon id="Fill-4" fill="#EEBB18" mask="url(#mask-4)" points="19.2353797 -3.78090102 25.4492405 19.4683058 0.724556962 26.1100888 -5.48927215 2.86085025"></polygon>
                </g>
                <g id="Group-9" transform="translate(11.075949, 35.850254)">
                    <mask id="mask-6" fill="white">
                        <use xlink:href="#path-5"></use>
                    </mask>
                    <g id="Clip-8"></g>
                    <polygon id="Fill-7" fill="#5B6A72" mask="url(#mask-6)" points="42.0272468 -6.10751904 49.9010127 23.3523794 3.50841772 35.814816 -4.36536076 6.35488579"></polygon>
                </g>
                <g id="Group-12" transform="translate(54.430380, 52.982234)">
                    <mask id="mask-8" fill="white">
                        <use xlink:href="#path-7"></use>
                    </mask>
                    <g id="Clip-11"></g>
                    <polygon id="Fill-10" fill="#5B6A72" mask="url(#mask-8)" points="23.8850949 -3.38588198 35.9087025 41.6007931 8.08860759 49.0740799 -3.935 4.08740482"></polygon>
                </g>
                <g id="Group-15" transform="translate(34.177215, 0.000000)">
                    <mask id="mask-10" fill="white">
                        <use xlink:href="#path-9"></use>
                    </mask>
                    <g id="Clip-14"></g>
                    <polygon id="Fill-13" fill="#DCF2F9" mask="url(#mask-10)" points="63.0579114 -3.74635152 81.7212658 66.0830584 5.92218354 86.4449239 -12.7412025 16.615514"></polygon>
                </g>
                <path d="M94.6634623,0.93778411 L94.6434541,0.960701098 L94.6568358,0.932547168 C93.1469706,-0.140674026 65.3813719,1.64479942 54.9933735,18.8498217 C44.6041825,36.0569151 35.5763571,52.7842711 33.7269938,56.0141668 C31.8780647,59.2456867 32.9053593,61.0098959 36.20126,63.3487883 C37.7015607,64.4122954 41.9304281,67.4127714 46.0984423,70.368207 C50.2627741,73.3228581 54.4916415,76.3233341 55.9919422,77.3868411 C59.2899053,79.7269532 61.2839804,80.1087472 63.6828787,77.2662763 C66.0801569,74.4242405 78.679322,60.2319398 91.2672671,44.5831174 C103.856088,28.9375807 96.1749528,2.01056932 94.6634623,0.93778411" id="Stroke-16" stroke="#5B6A72" stroke-width="3.15348101" stroke-linecap="round" stroke-linejoin="round"></path>
                <g id="Group-20" transform="translate(61.708861, 18.083756)">
                    <mask id="mask-12" fill="white">
                        <use xlink:href="#path-11"></use>
                    </mask>
                    <g id="Clip-19"></g>
                    <polygon id="Fill-18" fill="#FEFEFE" mask="url(#mask-12)" points="20.2736076 -4.4196066 26.9024367 20.382297 2.17778481 27.0240799 -4.4510443 2.2221764"></polygon>
                </g>
                <g id="Group-27" transform="translate(0.000000, 18.083756)">
                    <path d="M63.7642317,4.82224274 C67.3292984,-0.259061109 74.3265989,-1.47369979 79.392159,2.10611035 C84.4577184,5.68591935 85.67299,12.7064014 82.104814,17.7829848 C78.541009,22.8620956 71.5407225,24.0793895 66.4751625,20.4995807 C61.4113265,16.9193087 60.1987028,9.90181699 63.7642317,4.82224274" id="Stroke-21" stroke="#5B6A72" stroke-width="3.16455696"></path>
                    <path d="M0.168776266,106.767646 L17.0232468,82.9913924" id="Stroke-23" stroke="#979797" stroke-width="1.58227848" stroke-linecap="square"></path>
                    <path d="M9.78902943,103.554908 L19.255443,90.2008349" id="Stroke-25" stroke="#979797" stroke-width="1.58227848" stroke-linecap="square"></path>
                </g>
            </g>
            <g id="STELLAR-logo_RGB" transform="translate(125.000000, 0.000000)">
                <path d="M42.2798,59.9439 C42.2798,63.0429 41.4978,65.6949 39.9328,67.8999 C38.3688,70.1049 36.1488,71.7879 33.2738,72.9499 C30.3988,74.1119 27.1128,74.6929 23.4188,74.6929 C13.6158,74.6929 6.9418,71.9659 3.3968,66.5139 L11.9778,60.4809 C13.3778,62.3869 14.9948,63.6609 16.8268,64.3009 C18.6588,64.9429 20.6178,65.2619 22.7038,65.2619 C28.1858,65.2619 30.9278,63.6689 30.9278,60.4809 C30.9278,59.0799 30.1528,57.9999 28.6038,57.2399 C27.0538,56.4799 24.6258,55.6979 21.3188,54.8939 C15.0908,53.5239 10.7108,51.5869 8.1788,49.0839 C5.6458,46.5809 4.3798,43.3339 4.3798,39.3399 C4.3798,35.1989 5.9668,31.7869 9.1398,29.1059 C12.3128,26.4239 16.9838,25.0839 23.1508,25.0839 C27.3518,25.0839 31.0538,25.7539 34.2578,27.0949 C37.4598,28.4359 39.9258,30.4459 41.6538,33.1279 L33.0288,39.2509 C30.9718,36.0929 27.6198,34.5139 22.9718,34.5139 C20.5878,34.5139 18.7858,34.9229 17.5648,35.7429 C16.3428,36.5629 15.7318,37.6129 15.7318,38.8939 C15.7318,40.1159 16.2828,41.0909 17.3858,41.8209 C18.4878,42.5509 20.6628,43.3179 23.9108,44.1229 C29.2438,45.4339 33.0508,46.7369 35.3298,48.0329 C37.6098,49.3289 39.3368,50.9389 40.5138,52.8599 C41.6908,54.7819 42.2798,57.1439 42.2798,59.9439 Z" id="Fill-1" fill="#25ACD3"></path>
                <path d="M77.3638,73.3072 C74.2648,74.2302 71.0018,74.6922 67.5758,74.6922 C62.1528,74.6922 58.2498,73.4712 55.8668,71.0282 C53.4828,68.5852 52.2908,64.6222 52.2908,59.1402 L52.2908,35.5862 L46.3468,35.5862 L46.3468,26.4242 L52.2908,26.4242 L52.2908,13.3732 L63.8218,13.3732 L63.8218,26.4242 L74.7268,26.4242 L74.7268,35.5862 L63.8218,35.5862 L63.8218,57.6642 C63.8218,60.5852 64.2758,62.5662 65.1848,63.6092 C66.0938,64.6522 67.3818,65.1732 69.0508,65.1732 C71.1658,65.1732 73.2668,64.7412 75.3528,63.8772 L77.3638,73.3072 Z" id="Fill-3" fill="#25ACD3"></path>
                <path d="M112.8057,44.9273 C112.8057,37.8063 109.6917,34.2453 103.4647,34.2453 C101.4087,34.2453 99.7247,34.5963 98.4137,35.2963 C97.1027,35.9963 96.0527,37.0383 95.2637,38.4243 C94.4737,39.8093 93.8557,41.9773 93.4087,44.9273 L112.8057,44.9273 Z M93.0957,52.8823 C93.3037,57.0543 94.3177,60.0493 96.1347,61.8653 C97.9517,63.6833 100.8127,64.5923 104.7157,64.5923 C106.9797,64.5923 108.9687,64.3093 110.6827,63.7423 C112.3957,63.1773 113.8927,62.0893 115.1747,60.4803 L123.7557,66.6033 C121.8777,69.3153 119.4427,71.3413 116.4477,72.6813 C113.4537,74.0223 109.3647,74.6923 104.1797,74.6923 C96.4627,74.6923 90.7047,72.6673 86.9057,68.6143 C83.1067,64.5623 81.2077,58.4403 81.2077,50.2453 C81.2077,33.4713 88.7157,25.0833 103.7327,25.0833 C110.4067,25.0833 115.4937,26.9683 118.9957,30.7373 C122.4957,34.5063 124.2467,39.9963 124.2467,47.2063 L124.2467,52.8823 L93.0957,52.8823 Z" id="Fill-5" fill="#25ACD3"></path>
                <mask id="mask-14" fill="white">
                    <use xlink:href="#path-13"></use>
                </mask>
                <g id="Clip-8"></g>
                <polygon id="Fill-7" fill="#25ACD3" mask="url(#mask-14)" points="134.66 73.3076 146.191 73.3076 146.191 6.7596 134.66 6.7596"></polygon>
                <polygon id="Fill-9" fill="#25ACD3" mask="url(#mask-14)" points="159.197 73.3076 170.728 73.3076 170.728 6.7596 159.197 6.7596"></polygon>
                <path d="M210.4595,51.5415 L204.6045,52.0785 C200.4625,52.4355 197.4765,53.2255 195.6435,54.4465 C193.8115,55.6685 192.8955,57.5005 192.8955,59.9435 C192.8955,62.0895 193.4905,63.5575 194.6825,64.3465 C195.8745,65.1355 197.4535,65.5305 199.4205,65.5305 C200.8205,65.5305 202.5265,65.0915 204.5375,64.2115 C206.5485,63.3335 208.5225,62.0895 210.4595,60.4805 L210.4595,51.5415 Z M211.3975,73.3075 L211.3975,68.4355 C206.8395,72.6075 201.9525,74.6925 196.7385,74.6925 C191.5545,74.6925 187.6355,73.3295 184.9845,70.6035 C182.3325,67.8765 181.0065,64.3835 181.0065,60.1225 C181.0065,56.7865 181.6845,54.0295 183.0405,51.8545 C184.3955,49.6795 186.4065,47.9735 189.0735,46.7375 C191.7395,45.5005 195.5765,44.6295 200.5825,44.1225 L210.4595,43.1845 L210.4595,41.0835 C210.4595,38.4615 209.6695,36.6665 208.0905,35.6975 C206.5115,34.7295 204.2025,34.2455 201.1635,34.2455 C198.6605,34.2455 196.5075,34.6635 194.7055,35.4965 C192.9015,36.3315 191.5685,37.5235 190.7055,39.0725 L181.7215,33.3065 C183.3005,30.6555 185.7735,28.6215 189.1405,27.2065 C192.5075,25.7915 196.5745,25.0835 201.3415,25.0835 C208.6415,25.0835 213.9075,26.3565 217.1415,28.9045 C220.3735,31.4525 221.9905,35.6305 221.9905,41.4405 L221.9905,73.3075 L211.3975,73.3075 Z" id="Fill-10" fill="#25ACD3" mask="url(#mask-14)"></path>
                <path d="M262.9287,37.687 C261.7367,37.091 260.1577,36.793 258.1917,36.793 C256.0467,36.793 254.0127,37.307 252.0907,38.335 C250.1687,39.363 248.1947,40.86 246.1687,42.827 L246.1687,73.307 L234.6377,73.307 L234.6377,26.424 L246.1687,26.424 L246.1687,33.128 C248.1357,30.983 250.2507,29.21 252.5157,27.81 C254.7797,26.41 257.3117,25.709 260.1137,25.709 C262.4967,25.709 264.1947,26.022 265.2077,26.647 L262.9287,37.687 Z" id="Fill-11" fill="#25ACD3" mask="url(#mask-14)"></path>
            </g>
        </g>
    </g>
</svg>