<?xml version="1.0" encoding="UTF-8"?>
<svg width="319px" height="400px" viewBox="0 0 319 400" version="1.1" xmlns="http://www.w3.org/2000/svg" xmlns:xlink="http://www.w3.org/1999/xlink">
    <defs>
        <path d="M86.2226,63.8924 C85.9164,64.3366 85.5649,64.7337 85.24,65.1566 C62.1433,97.1392 29.5617,112.8627 11.792,100.2527 C-5.9744,87.6549 -2.253,51.4736 19.8787,18.7948 C20.1694,18.3416 20.4246,17.8781 20.7369,17.4323 C33.4238,-0.7178 58.374,-5.0325 76.4652,7.8009 C94.5503,20.636 98.9279,45.7375 86.2226,63.8924 Z" id="path-1"></path>
        <path d="M60.137,43.8535 C59.9157,44.1593 59.6724,44.4321 59.4339,44.723 C43.1671,66.7316 20.337,77.6295 7.9692,69.0665 C-4.4063,60.4992 -1.6609,35.6854 13.9332,13.2084 C14.1406,12.8999 14.3124,12.5814 14.5398,12.274 C23.4818,-0.2151 40.9436,-3.2723 53.5403,5.4563 C66.1215,14.1761 69.079,31.3644 60.137,43.8535 Z" id="path-3"></path>
        <path d="M136.9422,15.5039 C136.9422,15.5039 141.1073,107.864 89.7345,72.23 C51.6923,45.8431 18.9204,51.0907 4.4631,55.5865 C-0.60464,57.1646 0.31468,53.5497 2.17987,51.151 C63.3473,-27.2699 124.7402,7.0497 136.9422,15.5039 Z" id="path-5"></path>
        <path d="M53.6401,0.3553 C65.6422,8.8506 118.2995,54.3863 65.4111,137.0386 C63.7962,139.5606 60.7158,141.6121 60.498,136.3922 C59.8663,121.5072 53.8039,89.3943 16.3859,62.8844 C-34.1471,27.0723 53.6401,0.3553 53.6401,0.3553 Z" id="path-7"></path>
        <path d="M196.0273,1.6454 C200.8036,5.0269 225.076,89.9008 185.2959,139.2154 C145.5187,188.5403 105.7059,233.2743 98.1307,242.2323 C90.5503,251.1917 84.2491,249.9883 73.8327,242.6109 C69.0867,239.2601 55.7237,229.8025 42.5593,220.4908 C29.3937,211.1739 16.0306,201.7163 11.2846,198.3655 C0.8696,190.9933 -2.3714,185.4311 3.4659,175.2468 C9.3097,165.0662 37.8423,112.3403 70.6664,58.1051 C103.4971,3.8736 191.2353,-1.7539 196.0064,1.6289 L195.9641,1.7177 L196.0273,1.6454 Z" id="path-9"></path>
        <path d="M6.495,15.1998 C17.7606,-0.8165 39.872,-4.6451 55.8792,6.6385 C71.8864,17.9221 75.7266,40.0506 64.4512,56.052 C53.1896,72.0614 31.0687,75.8983 15.0615,64.6147 C-0.9402,53.3297 -4.7721,31.2106 6.495,15.1998 Z" id="path-11"></path>
    </defs>
    <g id="Page-1" stroke="none" stroke-width="1" fill="none" fill-rule="evenodd">
        <g id="stellar-rocket@1x" transform="translate(3.000000, 3.000000)">
            <g id="Group-3" transform="translate(84.000000, 192.000000)">
                <mask id="mask-2" fill="white">
                    <use xlink:href="#path-1"></use>
                </mask>
                <g id="Clip-2"></g>
                <polygon id="Fill-1" fill="#ED8117" mask="url(#mask-2)" points="85.2246 -14.7046 112.7285 87.9411 5.2539 116.7388 -22.2499 14.0931"></polygon>
            </g>
            <g id="Group-6" transform="translate(106.000000, 199.000000)">
                <mask id="mask-4" fill="white">
                    <use xlink:href="#path-3"></use>
                </mask>
                <g id="Clip-5"></g>
                <polygon id="Fill-4" fill="#EEBB18" mask="url(#mask-4)" points="60.7838 -11.9174 80.4196 61.3641 2.2896 82.299 -17.3461 9.0174"></polygon>
            </g>
            <g id="Group-9" transform="translate(35.000000, 113.000000)">
                <mask id="mask-6" fill="white">
                    <use xlink:href="#path-5"></use>
                </mask>
                <g id="Clip-8"></g>
                <polygon id="Fill-7" fill="#5B6A72" mask="url(#mask-6)" points="132.8061 -19.2509 157.6872 73.6067 11.0866 112.8883 -13.79454 20.0306"></polygon>
            </g>
            <g id="Group-12" transform="translate(172.000000, 167.000000)">
                <mask id="mask-8" fill="white">
                    <use xlink:href="#path-7"></use>
                </mask>
                <g id="Clip-11"></g>
                <polygon id="Fill-10" fill="#5B6A72" mask="url(#mask-8)" points="75.4769 -10.6723 113.4715 131.1257 25.56 154.6815 -12.4346 12.8835"></polygon>
            </g>
            <g id="Group-15" transform="translate(108.000000, 0.000000)">
                <mask id="mask-10" fill="white">
                    <use xlink:href="#path-9"></use>
                </mask>
                <g id="Clip-14"></g>
                <polygon id="Fill-13" fill="#DCF2F9" mask="url(#mask-10)" points="199.263 -11.8085 258.2392 208.2938 18.7141 272.4744 -40.2622 52.3721"></polygon>
            </g>
            <path d="M299.136541,2.95589551 L299.073315,3.02812986 L299.115601,2.93938867 C294.344427,-0.443404531 206.605135,5.18440778 173.77906,59.4146381 C140.949217,113.651396 112.421288,166.376022 106.577301,176.556654 C100.734684,186.742404 103.980935,192.303192 114.395982,199.675381 C119.136932,203.027555 132.500153,212.485056 145.671078,221.800588 C158.830366,231.113649 172.193587,240.571149 176.934537,243.923323 C187.356101,251.299356 193.657378,252.502771 201.237897,243.543303 C208.813296,234.585206 248.626657,189.851074 288.404564,140.525986 C328.185239,91.2112543 303.912851,6.33731451 299.136541,2.95589551" id="Stroke-16" stroke="#5B6A72" stroke-width="9.965" stroke-linecap="round" stroke-linejoin="round"></path>
            <g id="Group-20" transform="translate(195.000000, 57.000000)">
                <mask id="mask-12" fill="white">
                    <use xlink:href="#path-11"></use>
                </mask>
                <g id="Clip-19"></g>
                <polygon id="Fill-18" fill="#FEFEFE" mask="url(#mask-12)" points="64.0646 -13.9306 85.0117 64.245 6.8818 85.1799 -14.0653 7.0043"></polygon>
            </g>
            <g id="Group-27" transform="translate(0.000000, 57.000000)">
                <path d="M201.494972,15.1997091 C212.760583,-0.816560614 234.872053,-4.64510174 250.879222,6.63845982 C266.88639,17.9220178 270.726649,40.0505772 259.451212,56.051968 C248.189588,72.0613254 226.068683,75.8982357 210.061513,64.6146783 C194.059792,53.3296611 190.227901,31.2105272 201.494972,15.1997091" id="Stroke-21" stroke="#5B6A72" stroke-width="10"></path>
                <path d="M0.533333,336.53162 L53.79346,261.588869" id="Stroke-23" stroke="#979797" stroke-width="5" stroke-linecap="square"></path>
                <path d="M30.933333,326.40507 L60.8472,284.313032" id="Stroke-25" stroke="#979797" stroke-width="5" stroke-linecap="square"></path>
            </g>
        </g>
    </g>
</svg>
