<svg xmlns="http://www.w3.org/2000/svg" width="472" height="211" viewBox="0 0 472 211">
  <g fill="none" fill-rule="evenodd">
    <path fill="#08B5E5" d="M13.276,210.468 C8.164,210.468 3.556,209.028 0.352,206.22 L4.852,200.856 C7.588,202.944 10.72,203.808 13.672,203.808 C15.184,203.808 15.832,203.412 15.832,202.728 L15.832,202.656 C15.832,201.936 15.04,201.54 12.34,201 C6.688,199.848 1.72,198.228 1.72,192.9 L1.72,192.828 C1.72,188.04 5.464,184.332 12.412,184.332 C17.272,184.332 20.872,185.484 23.788,187.788 L19.684,193.476 C17.308,191.748 14.464,190.992 12.124,190.992 C10.864,190.992 10.288,191.424 10.288,192.036 L10.288,192.108 C10.288,192.792 10.972,193.224 13.636,193.728 C20.08,194.916 24.4,196.788 24.4,201.864 L24.4,201.936 C24.4,207.228 20.044,210.468 13.276,210.468 Z M31.888,210 L31.888,191.928 L24.472,191.928 L24.472,184.8 L47.728,184.8 L47.728,191.928 L40.312,191.928 L40.312,210 L31.888,210 Z M49.636,210 L49.636,184.8 L71.128,184.8 L71.128,191.712 L57.916,191.712 L57.916,194.268 L70.228,194.268 L70.228,200.352 L57.916,200.352 L57.916,203.088 L71.308,203.088 L71.308,210 L49.636,210 Z M73.576,210 L73.576,184.8 L82,184.8 L82,202.8 L93.844,202.8 L93.844,210 L73.576,210 Z M95.68,210 L95.68,184.8 L104.104,184.8 L104.104,202.8 L115.948,202.8 L115.948,210 L95.68,210 Z M115.948,210 L126.568,184.62 L134.92,184.62 L145.54,210 L136.396,210 L135.064,206.616 L126.244,206.616 L124.948,210 L115.948,210 Z M128.368,200.64 L132.976,200.64 L130.672,194.52 L128.368,200.64 Z M146.584,210 L146.584,184.8 L158.896,184.8 C163.36,184.8 166.204,185.916 167.968,187.68 C169.48,189.192 170.272,191.064 170.272,193.656 L170.272,193.728 C170.272,197.4 168.364,199.956 165.304,201.432 L171.172,210 L161.56,210 L156.808,202.8 L155.008,202.8 L155.008,210 L146.584,210 Z M155.008,196.788 L158.644,196.788 C160.66,196.788 161.884,195.888 161.884,194.34 L161.884,194.268 C161.884,192.648 160.624,191.856 158.68,191.856 L155.008,191.856 L155.008,196.788 Z M181.468,210 L181.468,184.8 L192.808,184.8 C199.504,184.8 204.076,187.788 204.076,193.764 L204.076,193.836 C204.076,199.92 199.432,203.16 192.628,203.16 L189.892,203.16 L189.892,210 L181.468,210 Z M189.892,197.148 L192.16,197.148 C194.32,197.148 195.76,196.176 195.76,194.376 L195.76,194.304 C195.76,192.468 194.428,191.532 192.196,191.532 L189.892,191.532 L189.892,197.148 Z M201.52,210 L212.14,184.62 L220.492,184.62 L231.112,210 L221.968,210 L220.636,206.616 L211.816,206.616 L210.52,210 L201.52,210 Z M213.94,200.64 L218.548,200.64 L216.244,194.52 L213.94,200.64 Z M232.156,210 L232.156,184.8 L243.496,184.8 C250.192,184.8 254.764,187.788 254.764,193.764 L254.764,193.836 C254.764,199.92 250.12,203.16 243.316,203.16 L240.58,203.16 L240.58,210 L232.156,210 Z M240.58,197.148 L242.848,197.148 C245.008,197.148 246.448,196.176 246.448,194.376 L246.448,194.304 C246.448,192.468 245.116,191.532 242.884,191.532 L240.58,191.532 L240.58,197.148 Z M256.564,210 L256.564,184.8 L278.056,184.8 L278.056,191.712 L264.844,191.712 L264.844,194.268 L277.156,194.268 L277.156,200.352 L264.844,200.352 L264.844,203.088 L278.236,203.088 L278.236,210 L256.564,210 Z M280.504,210 L280.504,184.8 L292.816,184.8 C297.28,184.8 300.124,185.916 301.888,187.68 C303.4,189.192 304.192,191.064 304.192,193.656 L304.192,193.728 C304.192,197.4 302.284,199.956 299.224,201.432 L305.092,210 L295.48,210 L290.728,202.8 L288.928,202.8 L288.928,210 L280.504,210 Z M288.928,196.788 L292.564,196.788 C294.58,196.788 295.804,195.888 295.804,194.34 L295.804,194.268 C295.804,192.648 294.544,191.856 292.6,191.856 L288.928,191.856 L288.928,196.788 Z M322.192,210.18 L313.948,184.8 L322.768,184.8 L326.332,196.896 L330.4,184.728 L337.672,184.728 L341.74,196.896 L345.304,184.8 L353.98,184.8 L345.736,210.18 L338.392,210.18 L333.964,197.652 L329.536,210.18 L322.192,210.18 Z M350.344,210 L360.964,184.62 L369.316,184.62 L379.936,210 L370.792,210 L369.46,206.616 L360.64,206.616 L359.344,210 L350.344,210 Z M362.764,200.64 L367.372,200.64 L365.068,194.52 L362.764,200.64 Z M380.98,210 L380.98,184.8 L389.404,184.8 L389.404,202.8 L401.248,202.8 L401.248,210 L380.98,210 Z M403.084,210 L403.084,184.8 L411.508,184.8 L411.508,202.8 L423.352,202.8 L423.352,210 L403.084,210 Z M425.188,210 L425.188,184.8 L446.68,184.8 L446.68,191.712 L433.468,191.712 L433.468,194.268 L445.78,194.268 L445.78,200.352 L433.468,200.352 L433.468,203.088 L446.86,203.088 L446.86,210 L425.188,210 Z M455.572,210 L455.572,191.928 L448.156,191.928 L448.156,184.8 L471.412,184.8 L471.412,191.928 L463.996,191.928 L463.996,210 L455.572,210 Z"/>
    <g fill-rule="nonzero" transform="translate(162)">
      <g fill="#FFF" transform="translate(2 3)">
        <polygon points="127.326 135.74 .077 135.74 .077 25.059 127.326 .051"/>
        <rect width="143.733" height="110.705" x=".077" y="25.059"/>
      </g>
      <rect width="126" height="92" x="12" y="37" fill="#FDBF5E"/>
      <g fill="#193651" transform="translate(22 49)">
        <rect width="2.324" height="4.63" x="97.607" y="64.106"/>
        <path d="M93.2007491,68.736375 L88.7940075,68.736375 L88.7940075,64.10625 L93.2007491,64.10625 L93.2007491,68.736375 Z M84.411985,68.736375 L79.7876404,68.736375 L79.7876404,64.10625 L84.411985,64.10625 L84.411985,68.736375 Z M75.3808989,68.736375 L70.9741573,68.736375 L70.9741573,64.10625 L75.3808989,64.10625 L75.3808989,68.736375 Z M66.5674157,68.736375 L62.1610487,68.736375 L62.1610487,64.10625 L66.5677903,64.10625 L66.5677903,68.736375 L66.5674157,68.736375 Z M57.7786517,68.736375 L53.3719101,68.736375 L53.3719101,64.10625 L57.7786517,64.10625 L57.7786517,68.736375 Z M48.9895131,68.736375 L44.5827715,68.736375 L44.5827715,64.10625 L48.9895131,64.10625 L48.9895131,68.736375 Z M39.958427,68.736375 L35.5516854,68.736375 L35.5516854,64.10625 L39.958427,64.10625 L39.958427,68.736375 Z M31.1453184,68.736375 L26.7385768,68.736375 L26.7385768,64.10625 L31.1453184,64.10625 L31.1453184,68.736375 Z M22.3561798,68.736375 L17.9494382,68.736375 L17.9494382,64.10625 L22.3561798,64.10625 L22.3561798,68.736375 Z M13.5670412,68.736375 L9.16067416,68.736375 L9.16067416,64.10625 L13.5674157,64.10625 L13.5674157,68.736375 L13.5670412,68.736375 Z"/>
        <rect width="4.624" height="4.63" x=".129" y="64.106"/>
        <path d="M4.75393258,59.47575 L0.129213483,59.47575 L0.129213483,54.845625 L4.75355805,54.845625 L4.75355805,59.47575 L4.75393258,59.47575 Z M4.75393258,50.433375 L0.129213483,50.433375 L0.129213483,45.802875 L4.75355805,45.802875 L4.75355805,50.433375 L4.75393258,50.433375 Z M4.75393258,41.148375 L0.129213483,41.148375 L0.129213483,36.51825 L4.75355805,36.51825 L4.75355805,41.148375 L4.75393258,41.148375 Z M4.75393258,32.106 L0.129213483,32.106 L0.129213483,27.475875 L4.75355805,27.475875 L4.75355805,32.106 L4.75393258,32.106 Z M4.75393258,23.063625 L0.129213483,23.063625 L0.129213483,18.4335 L4.75355805,18.4335 L4.75355805,23.063625 L4.75393258,23.063625 Z M4.75393258,13.803 L0.129213483,13.803 L0.129213483,9.172875 L4.75355805,9.172875 L4.75355805,13.803 L4.75393258,13.803 Z"/>
        <rect width="4.624" height="4.63" x=".129" y=".13"/>
        <path d="M93.2007491,4.760625 L88.7940075,4.760625 L88.7940075,0.1305 L93.2007491,0.1305 L93.2007491,4.760625 Z M84.411985,4.760625 L79.7876404,4.760625 L79.7876404,0.1305 L84.411985,0.1305 L84.411985,4.760625 Z M75.3808989,4.760625 L70.9741573,4.760625 L70.9741573,0.1305 L75.3808989,0.1305 L75.3808989,4.760625 Z M66.5674157,4.760625 L62.1610487,4.760625 L62.1610487,0.1305 L66.5677903,0.1305 L66.5677903,4.760625 L66.5674157,4.760625 Z M57.7786517,4.760625 L53.3719101,4.760625 L53.3719101,0.1305 L57.7786517,0.1305 L57.7786517,4.760625 Z M48.9895131,4.760625 L44.5827715,4.760625 L44.5827715,0.1305 L48.9895131,0.1305 L48.9895131,4.760625 Z M39.958427,4.760625 L35.5516854,4.760625 L35.5516854,0.1305 L39.958427,0.1305 L39.958427,4.760625 Z M31.1453184,4.760625 L26.7385768,4.760625 L26.7385768,0.1305 L31.1453184,0.1305 L31.1453184,4.760625 Z M22.3561798,4.760625 L17.9494382,4.760625 L17.9494382,0.1305 L22.3561798,0.1305 L22.3561798,4.760625 Z M13.5670412,4.760625 L9.16067416,4.760625 L9.16067416,0.1305 L13.5674157,0.1305 L13.5674157,4.760625 L13.5670412,4.760625 Z"/>
        <rect width="2.324" height="4.63" x="97.607" y=".13"/>
      </g>
      <rect width="56" height="27" x="90" y="70" fill="#FFF"/>
      <path fill="#193651" d="M132.468757,25.6806472 L132.468757,0 L2.09394494,25.4367098 L0,25.4367098 L0,26.1447326 L0,141 L132.468757,141 L149,141 L149,25.6806472 L132.468757,25.6806472 Z M127.818768,5.83448536 L127.818768,25.6810249 L26.3185529,25.6810249 L127.818768,5.83448536 Z M144.350011,94.3007051 L92.8815224,94.3007051 L92.8815224,72.135627 L144.325532,72.135627 L144.325532,94.3010828 L144.350011,94.3010828 L144.350011,94.3007051 Z M144.350011,67.4728722 L88.2315335,67.4728722 L88.2315335,98.9880048 L144.350011,98.9880048 L144.350011,136.093308 L4.64998888,136.093308 L4.64998888,30.3434021 L144.350011,30.3434021 L144.350011,67.4728722 Z"/>
      <circle cx="101.5" cy="83.5" r="4.5" fill="#2EA2DB"/>
    </g>
  </g>
</svg>
